<?xml version="1.0" encoding="utf-8"?>
<!-- Generator: Adobe Illustrator 16.0.3, SVG Export Plug-In . SVG Version: 6.00 Build 0)  -->
<!DOCTYPE svg PUBLIC "-//W3C//DTD SVG 1.1//EN" "http://www.w3.org/Graphics/SVG/1.1/DTD/svg11.dtd">
<svg version="1.1" id="Capa_1" xmlns="http://www.w3.org/2000/svg" xmlns:xlink="http://www.w3.org/1999/xlink" x="0px" y="0px"
	 width="1380px" height="768px" viewBox="0 0 1380 768" enable-background="new 0 0 1380 768" xml:space="preserve">
<g>
	<defs>
		<rect id="SVGID_1_" width="1380" height="768"/>
	</defs>
	<clipPath id="SVGID_2_">
		<use xlink:href="#SVGID_1_"  overflow="visible"/>
	</clipPath>
	<g clip-path="url(#SVGID_2_)">
		<g>
			<path fill="#C2E6E6" d="M74.132,809.504C22.309,749.184,5.36,659.568,34.833,585.707c13.489-33.801,35.721-65.547,37.008-101.916
				c1.466-41.422-24.454-78.17-37.511-117.505c-27.159-81.817,8.173-180.002,81.238-225.751
				c73.066-45.749,176.824-34.653,238.564,25.511c36.192,35.27,58.907,84.794,102.046,111.116
				c34.062,20.78,75.554,23.784,114.783,31.063c39.229,7.278,81.044,21.936,101.496,56.193
				c24.705,41.383,9.044,94.499-10.836,138.407c-19.878,43.908-44.11,90.533-34.435,137.75
				c6.074,29.623,24.873,54.885,35.985,83.008c11.112,28.125,7.979,66.809-15.452,85.922H74.132z"/>
			<path fill="#C2E6E6" d="M-936.284,120.891c25.606-75.288,94.169-135.436,172.758-147.595c35.965-5.563,74.604-2.551,106.58-19.93
				c36.417-19.791,54.89-60.79,82.13-92.029c56.655-64.975,159.171-84.452,235.706-44.781
				c76.537,39.671,119.719,134.666,99.286,218.416c-11.977,49.096-43.083,93.83-43.824,144.359
				c-0.584,39.893,17.919,77.155,31.589,114.637c13.67,37.485,22.3,80.944,3.193,115.969
				c-23.082,42.314-76.785,55.822-124.702,61.018c-47.917,5.199-100.388,8.029-136.131,40.363
				c-22.425,20.285-34.625,49.314-53.197,73.18c-18.572,23.861-53.479,40.83-81.849,30.363L-936.284,120.891z"/>
			<path fill="#C2E6E6" d="M482.653,248.998c31.489,16.224,68.466,21.539,103.246,14.841c20.042-3.858,40.905-12.981,50.268-31.115
				c9.626-18.642,4.051-42.486-9.253-58.709c-13.303-16.223-32.957-25.955-52.859-32.588
				c-38.599-12.862-84.092-17.451-123.937-7.408c-42.033,10.594-42.241,43.973-18.405,73.407
				C445.598,224.573,463.031,238.887,482.653,248.998z"/>
			<path fill="#C2E6E6" d="M1570.083,275.878c-27.445,74.639-97.459,133.085-176.323,143.317
				c-36.09,4.68-74.642,0.721-107.036,17.311c-36.892,18.895-56.363,59.428-84.361,89.99
				c-58.23,63.568-161.193,80.525-236.73,38.992c-75.543-41.537-116.383-137.561-93.907-220.786
				c13.179-48.787,45.373-92.746,47.35-143.242c1.563-39.867-16.021-77.573-28.768-115.379
				c-12.746-37.808-20.312-81.466-0.352-116.012c24.113-41.734,78.13-53.921,126.162-57.942
				c48.028-4.021,100.554-5.565,137.078-37.014c22.918-19.73,35.821-48.453,54.973-71.854c19.154-23.4,54.466-39.507,82.571-28.349
				L1570.083,275.878z"/>
		</g>
		<g>
			<g>
				<g>
					<g>
						<path fill="#74563A" d="M385.874,227.415c-0.084-0.123-1.272-3.462-2.803-7.813c-4.751-13.508-8.377-27.396-10.828-41.504
							l-1.905-10.973c-0.794-4.575-6.97-5.479-9.042-1.323l-14.129,28.34c-3.782,7.584-4.931,16.213-3.265,24.523l3.937,19.616
							L385.874,227.415z"/>
						<path fill="#F4C9A2" d="M350.244,221.064c-1.02-6.682-0.309-13.721,2.003-19.82l8.148-21.513l0.457,3.458
							c1.908,14.46,4.754,28.819,8.46,42.68c0.044,0.171,0.868,3.277,0.91,3.44l-17.781,5.029L350.244,221.064z"/>
					</g>
					<path fill="#74563A" d="M418.479,232.555c17.021-15,33.209-30.941,48.473-47.728c4.43-4.873,12.523-2.525,13.675,3.959
						l3.579,20.14c1.979,11.146-0.516,22.624-6.947,31.941l-21.9,31.735L418.479,232.555z"/>
					<path fill="#F4C9A2" d="M431.503,237.727c15.159-13.688,29.757-28.233,43.473-43.318c0.156-0.173,0.263-0.206,0.405-0.206
						c0.17,0,0.573,0.05,0.657,0.524l3.578,20.139c1.655,9.312-0.395,18.726-5.763,26.508l-16.703,24.2L431.503,237.727z"/>
					<g>
						<path fill="#74563A" d="M434.379,374.085V326.17c0-4.355-5.185-6.629-8.389-3.677c-8.008,7.377-17.343,13.173-27.51,17.076
							l-57.483,22.063l0.016,0.071l-13.427,49.883c-3.673,13.648-14.475,24.223-28.199,27.605l-51.938,12.805l-3.986,62.592
							l224.145-3.564l-25.461-84.303C436.996,409.65,434.379,391.916,434.379,374.085z"/>
						<path fill="#B28356" d="M461.396,401.168V281.417c0-12.688-5.859-24.663-15.871-32.453l-26.177-20.367
							c-9.305-7.235-21.539-9.506-32.82-6.09l-32.524,9.854c-7.846,2.377-14.415,7.792-18.247,15.039l-14.126,26.709l19.366,87.524
							l59.221-22.731c9.667-3.711,18.054-9.814,25.924-16.543c3.213-2.748,8.237-0.478,8.237,3.812v47.915
							c0,17.831,2.617,35.565,7.767,52.637l25.461,84.303l45.736-0.727L461.396,401.168z"/>
					</g>
					<path fill="#F4C9A2" d="M321.631,274.109l-52.229,22.6c-10.126,4.38-14.38,16.451-9.241,26.213l7.333,13.929
						c5.285,10.045,15.1,16.914,26.347,18.443l47.022,6.392c11.327,1.54,22.725-2.293,30.822-10.364l31.905-31.81
						c3.74-3.729,2.265-10.092-2.74-11.791l0,0c-1.34-0.454-2.785-0.5-4.149-0.132l0,0c-9.625,2.602-19.86-0.944-25.813-8.938
						l-11.368-15.259c-3.232-4.342-4.394-9.886-3.173-15.158l5.879-25.39c0.504-2.174-2.491-3.302-3.546-1.336l-11.658,21.7
						c-2.849,5.303-8.107,8.88-14.086,9.578L321.631,274.109z"/>
					<path fill="#442849" d="M356.978,327.272c-0.327-0.737-1.188-1.068-1.931-0.741l-17.528,7.808
						c-15.109,6.729-32.535,6.961-47.817,0.639l-6.588-2.725l-2.4-6.783l0.116-5.433c0.017-0.809-0.624-1.477-1.432-1.494
						c-0.777,0-1.477,0.625-1.494,1.433l-0.125,5.968l2.486,7.027l-0.693,0.696c-1.874,1.874-4.891,1.956-6.864,0.188l-4.226-3.784
						c-0.602-0.541-1.526-0.489-2.065,0.113c-0.538,0.603-0.486,1.526,0.114,2.064l4.224,3.784c1.507,1.351,3.396,2.021,5.284,2.021
						c2.032,0,4.06-0.779,5.601-2.32l0.657-0.656l6.286,2.604c7.743,3.204,16.01,4.802,24.277,4.802
						c8.835,0,17.668-1.827,25.85-5.472l17.528-7.806C356.975,328.876,357.307,328.012,356.978,327.272z"/>
					<path fill="#442849" d="M279.246,325.706c-7.172-2.192-13.147-8.08-15.689-15.132c-0.916-2.544,0.712-5.334,3.378-5.788
						c10.841-1.85,22.134-1.017,32.593,2.385c3.106,1.012,4.041,4.972,1.738,7.291C294.08,321.695,284.823,325.027,279.246,325.706z
						"/>
					<circle fill="#442849" cx="391.07" cy="272.602" r="8.365"/>
					<path fill="#74563A" d="M407.673,254.291c1.503,0.337,3.193,0.654,4.519-0.054c1.987-1.06,1.859-3.673,0.973-5.569
						c-1.647-3.525-5.105-6.354-9.209-7.539c-4.107-1.183-8.789-0.702-12.475,1.286c-3.599,1.94-6.525,6.577-1.138,7.982
						C396.046,251.883,401.909,252.997,407.673,254.291z"/>
					<ellipse fill="#442849" cx="340.195" cy="260.438" rx="4.695" ry="7.421"/>
					<path fill="#74563A" d="M354.655,242.498c0.889-0.1,1.864-0.263,2.259-1.152c0.592-1.333-0.486-3.386-1.67-4.68
						c-2.198-2.409-5.041-3.816-7.573-3.753c-2.53,0.063-4.705,1.597-5.796,4.087c-1.063,2.43-0.742,6.849,2.523,6.646
						C347.852,243.43,351.244,242.878,354.655,242.498z"/>
				</g>
				<g>
					<g>
						<path fill="#FBAD5F" d="M95.745,516.939l551.975-8.777l-27.307,158.961l-2.924,142.381H106.473l15.116-121.416l-2.521-4.459
							c-1.377-2.436-1.32-5.43,0.151-7.811l5.296-8.574l-6.29-3.908c-3.783-2.352-4.536-7.545-1.577-10.875l6.038-6.793
							L95.745,516.939z"/>
						<path fill="#EF9239" d="M620.413,667.123l-298.782,91.184l53.396-2.266c33.103-1.402,65.644-9.031,95.919-22.488
							L620.413,667.123z"/>
						<path fill="#EF9239" d="M183.76,731.973l108.98,12.436l-44.505,8.875c-16.121,3.215-32.862-0.123-46.52-9.275L183.76,731.973z
							"/>
						<path fill="#EF9239" d="M129.146,686.383l69.729-5.852l-28.897,8.688c-7.119,2.139-14.656,2.486-21.94,1.004L129.146,686.383z
							"/>
						<path fill="#EF9239" d="M135.486,644.205l45.782-13.109c6.337-1.816,12.916-2.648,19.504-2.467l52.717,1.434l-54.031,12.488
							c-4.762,1.1-9.631,1.654-14.518,1.654H135.486z"/>
						<g opacity="0.5">
							<polygon fill="#FFFFFF" points="177.324,611.832 173.398,611.412 176.194,605.297 176.194,605.297 171.813,604.586 
								174.975,598.25 170.959,597.393 173.632,590.488 169.619,589.592 172.284,582.689 172.284,582.689 169.131,581.549 
								171.062,575.619 171.062,575.619 166.205,574.111 169.863,568.688 110.809,588.914 120.221,633.887 178.274,617.326 
								174.861,616.777 							"/>
						</g>
					</g>
					<polygon fill="#EF9239" points="95.745,516.939 36.825,644.205 116.394,615.604 					"/>
					<polygon fill="#EF9239" points="647.72,508.162 693.556,636.404 629.616,613.557 					"/>
				</g>
				<g>
					<polygon fill="#AE3E58" points="156.087,360.903 150.724,384.56 153.405,385.041 163.279,358.954 					"/>
					<polygon fill="#AE3E58" points="138.699,362.488 139.753,387.732 142.313,387.732 144.872,363.219 					"/>
					<path fill="#F8DB85" d="M184.101,307.489c0.696-1.832,1.451-3.698,2.783-5.137c1.332-1.438,3.379-2.375,5.271-1.866
						c2.131,0.571,3.469,2.822,3.655,5.022c0.185,2.196-0.545,4.36-1.312,6.429c-3.677,9.917-8.461,19.423-14.231,28.289
						c-0.755,1.16-2.943,5.711-4.396,5.841c-2.433,0.218-0.919-4.146-0.705-5.441c0.877-5.294,2-10.547,3.365-15.734
						C180.08,318.998,181.939,313.186,184.101,307.489z"/>
					<path fill="#F8D06B" d="M196.396,309.009c1.27-1.656,2.612-3.325,4.396-4.357c1.788-1.033,4.136-1.306,5.877-0.137
						c1.961,1.315,2.602,4.093,2.101,6.423c-0.5,2.334-1.907,4.319-3.322,6.193c-6.789,8.989-14.561,17.18-23.121,24.37
						c-1.121,0.942-4.739,4.896-6.239,4.538c-2.51-0.602,0.372-4.595,0.992-5.855c2.533-5.167,5.3-10.208,8.29-15.103
						C188.765,319.523,192.446,314.156,196.396,309.009z"/>
					<path fill="#FAA959" d="M203.782,317.142c1.538-1.213,3.147-2.426,5.029-2.973c1.881-0.546,4.12-0.297,5.481,1.115
						c1.531,1.587,1.52,4.205,0.547,6.184c-0.971,1.979-2.71,3.46-4.433,4.838c-8.257,6.612-17.252,12.299-26.762,16.929
						c-1.245,0.607-5.463,3.381-6.776,2.746c-2.198-1.066,1.347-4.029,2.197-5.028c3.477-4.086,7.143-8.011,10.984-11.758
						C194.41,324.939,198.996,320.914,203.782,317.142z"/>
					<path fill="#F8D06B" d="M148.002,365.525c-14.064,1.017-28.425-6.194-36.012-18.08c-7.586-11.885-8.082-27.946-1.239-40.276
						c3.84-6.92,10.071-12.771,17.703-14.865c7.63-2.095,16.614,0.14,21.44,6.41c8.155,10.598,2.357,27.619,10.786,38
						c2.5,3.079,6.164,5.108,10.04,5.848c2.695,0.516,9.742-1.368,8.68,3.105c-0.785,3.31-5.206,7.238-7.618,9.438
						c-3.061,2.789-6.545,5.116-10.299,6.865C157.249,363.945,152.666,365.188,148.002,365.525z"/>
					<path fill="#FAA959" d="M170.719,342.561c-3.398-0.647-6.631-2.287-9.063-4.756c-6.201,2.915-13.055,4.452-19.909,4.359
						c-9.5-0.127-18.936-3.347-26.536-9.049c-3.634-2.727-6.87-6.058-9.137-9.988c-0.636,8.47,1.34,17.15,5.915,24.317
						c7.587,11.886,21.948,19.097,36.012,18.08c4.664-0.337,9.247-1.58,13.481-3.556c3.753-1.749,7.238-4.076,10.299-6.865
						c2.412-2.199,6.833-6.128,7.618-9.438C180.461,341.193,173.414,343.077,170.719,342.561z"/>
					<path fill="#AE3E58" d="M147.531,310.028l12.275,6.046l-14.18,0.746c-2.272,0.119-3.866-2.208-2.933-4.283l0.41-0.915
						C143.861,309.933,145.87,309.211,147.531,310.028z"/>
					<circle fill="#442849" cx="137.466" cy="303.518" r="3.565"/>
				</g>
				<g>
					<g>
						<path fill="#5A4A49" d="M74.132,384.56c12.349,5.844,27.953,22.667,27.953,22.667l-29.014,52.66
							c-0.486-21.209-14.384-37.66-14.384-37.66L74.132,384.56z"/>
						<path fill="#442849" d="M74.132,384.56l-15.445,37.667c0,0,3.824,4.531,7.529,11.896
							C73.439,423.77,80.138,408.23,74.132,384.56z"/>
						<path fill="#5A4A49" d="M74.132,384.56c-0.417,19.167-7.349,38.133-19.389,53.047c-2.261,2.803-5.256,5.701-8.843,5.391
							c-4.274-0.375-6.733-5.027-7.772-9.191c-2.158-8.637-1.624-17.926,1.51-26.258L74.132,384.56z"/>
					</g>
					<g>
						<path fill="#5A4A49" d="M221.68,350.109c-9.076,10.212-16.849,31.8-16.849,31.8l47.313,37.101
							c-7.855-19.709-1.508-40.289-1.508-40.289L221.68,350.109z"/>
						<path fill="#442849" d="M221.68,350.109l28.956,28.612c0,0-1.743,5.668-2.271,13.898
							C237.667,385.92,225.418,374.24,221.68,350.109z"/>
						<path fill="#5A4A49" d="M221.68,350.109c7.887,17.473,21.689,32.213,38.608,41.227c3.178,1.691,7.068,3.188,10.245,1.496
							c3.787-2.02,4.228-7.262,3.555-11.499c-1.394-8.792-5.522-17.132-11.668-23.572L221.68,350.109z"/>
					</g>
					<g>
						<path fill="#C6B7AF" d="M68.691,459.693l12.326-34.078c6.49-17.943,21.714-31.314,40.345-35.436l56.055-12.398
							c17.178-3.799,35.131,1.011,48.106,12.892l35.396,32.404c7.573,6.934,9.992,17.869,6.049,27.35l-17.063,41.021
							c-5.592,13.449-17.877,22.939-32.301,24.959l-80.413,11.268c-13.322,1.869-26.716-2.893-35.873-12.746l-27.38-29.469
							C67.5,478.533,65.474,468.588,68.691,459.693z"/>
						<path fill="#897675" d="M137.628,418.188c3.096-0.18,6.407-0.113,9.004,1.58c3.655,2.389,4.772,7.246,4.749,11.613
							c-0.053,10.367-5.021,20.607-13.134,27.066c-3.188,2.539-6.902,4.537-10.925,5.188c-4.023,0.65-8.378-0.156-11.566-2.697
							c-2.938-2.342-4.634-5.867-6.231-9.27c-3.437-7.305-4.586-15.5,0.281-22.553c2.905-4.207,7.48-7.021,12.462-8.027
							C127.477,420.035,132.203,418.504,137.628,418.188z"/>
						<circle fill="#442849" cx="128.961" cy="440.984" r="9.326"/>
						<path fill="#897675" d="M131.491,414.217c2.559-0.533,5.433-1.291,6.672-3.59c1.162-2.154,0.32-4.99-1.454-6.672
							c-1.775-1.684-4.268-2.402-6.701-2.662c-5.398-0.576-10.99,0.881-15.418,4.025c-3.438,2.438-7.466,10.146-1.166,11.994
							c2.186,0.641,5.022-0.385,7.148-0.826C124.212,415.73,127.853,414.975,131.491,414.217z"/>
						<path fill="#897675" d="M186.807,409.25c-2.905,1.084-5.909,2.48-7.601,5.08c-2.383,3.656-1.444,8.555,0.336,12.539
							c4.233,9.467,12.908,16.832,22.937,19.469c3.943,1.035,8.146,1.367,12.089,0.342c3.945-1.029,7.604-3.525,9.495-7.137
							c1.745-3.328,1.875-7.234,1.965-10.994c0.197-8.072-2.056-16.035-9.355-20.523c-4.356-2.676-9.679-3.408-14.642-2.318
							C196.841,406.848,191.898,407.352,186.807,409.25z"/>
						<path fill="#442849" d="M195.398,430.377c2.078,4.713,7.583,6.848,12.296,4.77c4.713-2.076,6.848-7.58,4.771-12.293
							c-2.078-4.715-7.582-6.852-12.294-4.773C195.458,420.158,193.322,425.662,195.398,430.377z"/>
						<path fill="#897675" d="M190.82,403.143c-2.555,0.545-5.492,1.008-7.554-0.596c-1.932-1.5-2.306-4.434-1.361-6.691
							c0.944-2.258,2.936-3.918,5.058-5.137c4.707-2.707,10.413-3.627,15.731-2.539c4.131,0.848,10.926,6.275,5.906,10.506
							c-1.742,1.469-4.751,1.678-6.874,2.131C198.091,401.59,194.456,402.365,190.82,403.143z"/>
						<g>
							<path fill="#E0D4BB" d="M149.727,449.65l-5.981,2.193c-4.605,1.688-8.661,4.605-11.726,8.436l0,0
								c-3.905,4.877-9.388,8.242-15.504,9.514l-12.912,2.684c-5.917,1.232-10.475,5.959-11.489,11.914l0,0
								c-0.783,4.596,0.662,9.289,3.892,12.648l8.247,8.574c10.058,10.461,24.583,15.365,38.923,13.137l68.435-10.629
								c15.003-2.328,27.783-12.145,33.906-26.035l5.147-11.676c2.742-6.223,1.476-13.486-3.216-18.412l0,0
								c-4.244-4.455-10.579-6.242-16.526-4.662l-5.049,1.342c-6.428,1.709-13.274,0.725-18.959-2.732l0,0
								c-3.822-2.322-8.21-3.553-12.684-3.553H183.76L149.727,449.65z"/>
							<path fill="#FFFFFF" d="M134.075,494.842c4.257,0.666,8.63,0.26,12.717-1.197c-3.241-5.264-5.912-10.887-7.839-16.756
								C136.146,482.467,134.499,488.613,134.075,494.842z"/>
							<path fill="#FFFFFF" d="M223.821,476.146c-3.647-4.92-8.243-9.139-13.491-12.297c1.514,6.047,2.253,12.287,2.307,18.527
								c3.7-0.994,7.189-2.797,10.18-5.369L223.821,476.146z"/>
							<path fill="#442849" d="M239.236,462.895c-0.525-0.609-1.449-0.68-2.063-0.154l-15.309,13.158
								c-6.08,5.227-14.343,7.145-22.103,5.129l-13.589-3.529c-3.184-0.826-6.452-1.029-9.655-0.703l-1.917-13.156
								c-0.117-0.801-0.869-1.348-1.658-1.236c-0.8,0.115-1.354,0.859-1.238,1.656l1.922,13.189
								c-3.409,0.721-6.691,2.057-9.643,4.047l-12.228,8.234c-7.699,5.184-17.868,5.535-25.904,0.896l-10.115-5.84
								c-0.702-0.404-1.594-0.164-1.999,0.537c-0.403,0.699-0.163,1.592,0.536,1.998l10.114,5.836
								c4.214,2.436,8.951,3.641,13.682,3.641c5.371,0,10.737-1.557,15.319-4.641l12.229-8.238
								c5.813-3.914,13.039-5.148,19.819-3.387l13.59,3.527c8.69,2.258,17.94,0.111,24.744-5.74l15.309-13.162
								C239.693,464.432,239.764,463.51,239.236,462.895z"/>
							<path fill="#442849" d="M148.182,450.664l1.544-1.014c10.803-7.09,23.755-10.154,36.59-8.66l2.575,0.299
								c4.288,0.5,6.487,5.398,4.01,8.936l-6.461,9.221c-5.273,7.527-15.06,10.396-23.561,6.904l-13.736-5.645
								C144.902,458.963,144.349,453.18,148.182,450.664z"/>
						</g>
					</g>
				</g>
				<g>
					<g>
						<g>
							<path fill="#F9EED0" d="M268.245,519.68c-1.047-7.354-3.843-14.959-8.187-20.984c-2.792,3.301-5.87,5.621-8.661,8.922
								c-1.152-4.275-1.96-9.113-1.628-13.531c-5.018,1.352-9.636,4.016-12.902,8.057c-0.516-3.475-0.3-7.053,0.606-10.447
								c-6.661,6.184-11.492,14.359-13.468,23.238c-1.441,6.477-1.393,13.434,1.132,19.57c3.299,8.023,10.92,14.115,19.474,15.564
								s17.755-1.791,23.514-8.279c5.658-6.375,7.96-18.9,5.71-27.229C272.308,516.545,270.402,518.25,268.245,519.68z"/>
							<path fill="#95A4B1" d="M311.16,513.514c-3.377-12.854-12.739-24.213-24.845-29.695c-12.104-5.484-26.671-5.209-38.56,0.725
								c-3.753,1.877-7.212,4.303-10.282,7.152c-0.906,3.395-1.122,6.973-0.606,10.447c3.267-4.041,7.885-6.705,12.902-8.057
								c-0.332,4.418,0.476,9.256,1.628,13.531c2.791-3.301,5.869-5.621,8.661-8.922c4.344,6.025,7.14,13.631,8.187,20.984
								c2.157-1.43,4.063-3.135,5.59-5.119c-0.04-0.15-0.068-0.307-0.112-0.453l0.464-0.006L311.16,513.514z"/>
						</g>
						<path opacity="0.3" fill="#442849" d="M291.195,504.748c-3.479-2.951-8.345-5.037-12.867-4.451
							c0.674-1.615,1.184-3.686,1.855-5.301c-3.535,2.193-9.264,8.9-6.461,19.111l22.87-0.361
							C295.808,510.273,293.911,507.053,291.195,504.748z"/>
					</g>
					<g>
						<g>
							<g>
								<g>
									<path fill="#95A4B1" d="M366.368,487.748l-1.949-1.895h-27.063h-27.062l-1.599,1.557
										c-7.668,7.451-14.159,16.025-19.258,25.424l-0.56,1.033l48.478-0.771l47.809-0.76l0,0
										C380.137,503.264,373.804,494.979,366.368,487.748z"/>
									<path fill="#D6CFBE" d="M337.355,496.092c-11.65,0-21.661,7.152-26.195,17.422l52.007-0.828
										C358.468,502.865,348.69,496.092,337.355,496.092z"/>
								</g>
								<path opacity="0.3" fill="#442849" d="M364.419,485.854h-27.063h-27.062l-1.599,1.557c-1.48,1.436-2.9,2.928-4.29,4.445
									c8.771,6.633,19.586,10.387,30.929,10.387h4.046c11.352,0,22.175-3.762,30.949-10.404c-1.287-1.395-2.599-2.766-3.961-4.09
									L364.419,485.854z"/>
							</g>
							<g>
								<g>
									<path fill="#797D9B" d="M270.958,363.751L270.958,363.751c-2.364,21.022-1.063,42.295,3.842,62.874l1.36,5.715l35-35.107
										l-6.013-9.941c-6.706-11.084-16.021-20.365-27.132-27.029l0,0C275.095,358.509,271.34,360.365,270.958,363.751z"/>
									<g>
										<path fill="#F5A7AD" d="M282.968,384.184c5.761,4.867,10.86,10.96,14.983,17.955l3.099,5.234l2.861-2.871l-8.153-13.424
											c-5.341-8.825-12.578-16.457-21.087-22.271c-1.319,14.943-0.723,29.904,1.774,44.652c0.243,1.436,3.21,13.66,3.489,15.096
											l4.093-4.105c-2.696-12.664-4.263-25.572-4.658-38.582C279.311,383.985,281.529,382.968,282.968,384.184z"/>
										<path fill="#F4869A" d="M297.951,402.139c-4.123-6.994-9.223-13.088-14.983-17.955c-1.438-1.216-3.657-0.199-3.599,1.683
											c0.396,13.01,1.962,25.918,4.658,38.582l17.022-17.076L297.951,402.139z"/>
									</g>
								</g>
								<g>
									<path fill="#797D9B" d="M403.368,363.751L403.368,363.751c2.364,21.022,1.066,42.295-3.841,62.874l-1.362,5.715
										l-34.998-35.107l6.013-9.941c6.706-11.084,16.021-20.365,27.13-27.029l0,0
										C399.232,358.509,402.986,360.365,403.368,363.751z"/>
									<g>
										<path fill="#F5A7AD" d="M391.359,384.184c-5.762,4.867-10.862,10.96-14.983,17.955l-3.099,5.234l-2.861-2.871
											l8.153-13.424c5.341-8.825,12.578-16.457,21.087-22.271c1.317,14.943,0.721,29.904-1.775,44.652
											c-0.244,1.436-3.209,13.66-3.489,15.096l-4.093-4.105c2.695-12.664,4.262-25.572,4.661-38.582
											C395.016,383.985,392.798,382.968,391.359,384.184z"/>
										<path fill="#F4869A" d="M376.376,402.139c4.121-6.994,9.222-13.088,14.983-17.955c1.438-1.216,3.656-0.199,3.601,1.683
											c-0.399,13.01-1.966,25.918-4.661,38.582l-17.021-17.076L376.376,402.139z"/>
									</g>
								</g>
								<g>
									<path fill="#95A4B1" d="M340.22,390.676h-5.727c-21.14,0-40.964,10.262-53.169,27.523l-3.975,5.619
										c-7.871,11.135-7.871,26.02,0,37.152l3.975,5.619c12.205,17.262,32.029,27.521,53.169,27.521h5.727
										c21.139,0,40.963-10.26,53.169-27.521l3.975-5.619c7.87-11.133,7.87-26.018,0-37.152l-3.975-5.619
										C381.183,400.938,361.358,390.676,340.22,390.676z"/>
									<path fill="#442849" d="M321.631,433.711c0,3.314-2.688,6.002-6.003,6.002s-6.005-2.688-6.005-6.002
										c0-3.318,2.689-6.004,6.005-6.004S321.631,430.393,321.631,433.711z"/>
									<path fill="#797D9B" d="M362.201,460.133c-0.57-0.57-1.496-0.57-2.067,0l-5.257,5.256c-1.799,1.797-4.189,2.789-6.73,2.789
										c-5.249,0-9.521-4.271-9.521-9.52v-0.6c0-0.807-0.655-1.463-1.462-1.463c-0.81,0-1.463,0.656-1.463,1.463v0.6
										c0,5.248-4.271,9.52-9.521,9.52c-2.542,0-4.934-0.992-6.732-2.789l-5.255-5.256c-0.571-0.57-1.498-0.57-2.069,0
										c-0.571,0.572-0.571,1.498,0,2.068l5.257,5.258c2.35,2.35,5.476,3.645,8.8,3.645c4.752,0,8.887-2.68,10.983-6.604
										c2.095,3.924,6.23,6.604,10.982,6.604c3.324,0,6.448-1.295,8.8-3.645l5.255-5.258
										C362.772,461.631,362.772,460.705,362.201,460.133z"/>
									<path fill="#797D9B" d="M319.656,419.9c1.288,0.328,2.652,0.865,3.894,0.395c1.416-0.537,2.088-2.295,1.765-3.773
										s-1.421-2.682-2.654-3.559c-4.107-2.922-10.17-2.709-14.06,0.5c-0.931,0.768-1.757,1.709-2.179,2.842
										c-0.988,2.648,1.161,5.725,4.048,4.779C313.625,420.047,316.254,419.031,319.656,419.9z"/>
									<path fill="#442849" d="M352.695,433.711c0,3.314,2.688,6.002,6.003,6.002s6.004-2.688,6.004-6.002
										c0-3.318-2.688-6.004-6.004-6.004S352.695,430.393,352.695,433.711z"/>
									<path fill="#797D9B" d="M354.669,419.9c-1.287,0.328-2.651,0.865-3.894,0.395c-1.415-0.537-2.088-2.295-1.765-3.773
										s1.423-2.682,2.656-3.559c4.105-2.922,10.169-2.709,14.058,0.5c0.932,0.768,1.759,1.709,2.179,2.842
										c0.99,2.648-1.16,5.725-4.046,4.779C360.7,420.047,358.071,419.031,354.669,419.9z"/>
									<g>
										<g>
											<path fill="#C3D2D4" d="M311.16,453.305c-9.291-1.49-24.354-1.49-33.646,0
												C286.806,454.797,301.869,454.797,311.16,453.305z"/>
										</g>
										<g>
											<path fill="#C3D2D4" d="M310.467,449.549c-8.485-4.068-22.928-8.344-32.26-9.555
												C286.691,444.063,301.134,448.342,310.467,449.549z"/>
										</g>
										<g>
											<path fill="#C3D2D4" d="M310.467,457.061c-9.333,1.207-23.775,5.488-32.26,9.557
												C287.539,465.408,301.981,461.129,310.467,457.061z"/>
										</g>
									</g>
									<g>
										<g>
											<path fill="#C3D2D4" d="M363.167,453.305c9.29-1.49,24.353-1.49,33.646,0
												C387.52,454.797,372.457,454.797,363.167,453.305z"/>
										</g>
										<g>
											<path fill="#C3D2D4" d="M363.859,449.549c8.484-4.068,22.927-8.344,32.26-9.555
												C387.636,444.063,373.193,448.342,363.859,449.549z"/>
										</g>
										<g>
											<path fill="#C3D2D4" d="M363.859,457.061c9.334,1.207,23.776,5.488,32.26,9.557
												C386.786,465.408,372.344,461.129,363.859,457.061z"/>
										</g>
									</g>
									<path fill="#442849" d="M345.178,447.453h-16.029c-2.874,0-4.369,2.934-2.42,4.742l3.526,3.273
										c1.863,1.727,4.385,2.59,6.909,2.59c2.521,0,5.045-0.863,6.906-2.59l3.528-3.273
										C349.548,450.387,348.051,447.453,345.178,447.453z"/>
									<path fill="#797D9B" d="M315.163,398.059c0.785,1.354,2.467,1.965,4.03,1.939c1.565-0.025,3.066-0.572,4.559-1.039
										c8.716-2.719,18.244-2.77,26.988-0.148c1.097,0.328,2.197,0.701,3.341,0.746c1.144,0.041,2.362-0.297,3.101-1.174
										c1.058-1.256,0.769-3.252-0.242-4.549c-0.982-1.256-2.477-1.984-3.964-2.578c-2.585-0.367-5.206-0.58-7.858-0.58h-15.523
										c-2.227,0-4.435,0.137-6.617,0.398c-1.198,0.447-2.379,0.943-3.529,1.504C317.442,393.553,313.422,395.057,315.163,398.059
										z"/>
									<path fill="#797D9B" d="M324.191,406.51c0.449,0.773,1.412,1.127,2.31,1.109c0.895-0.014,1.755-0.326,2.61-0.594
										c4.99-1.557,10.447-1.588,15.456-0.084c0.627,0.189,1.258,0.402,1.913,0.426c0.655,0.025,1.354-0.172,1.775-0.672
										c0.605-0.721,0.441-1.863-0.139-2.604c-0.579-0.742-1.469-1.166-2.346-1.512c-6.115-2.4-13.224-2.08-19.127,0.791
										C325.495,403.93,323.194,404.789,324.191,406.51z"/>
								</g>
							</g>
						</g>
						<ellipse fill="#F9EED0" cx="299.262" cy="516.33" rx="14.933" ry="11.947"/>
						<ellipse fill="#F9EED0" cx="375.451" cy="516.33" rx="14.932" ry="11.947"/>
					</g>
				</g>
				<g>
					<path fill="#442849" d="M544.785,336.223L544.785,336.223c0-4.033,4.246-6.66,7.857-4.854l27.292,13.636
						c16.279,8.135,27.711,23.539,30.773,41.476l9.086,53.17c0.716,4.189-3.69,7.381-7.448,5.395l-31.005-16.395L544.785,336.223z"
						/>
					<g>
						<path fill="#BD4E5A" d="M472.18,445.65l3.195,15.227c2.189,10.418-2.276,21.104-11.224,26.871l-10.413,6.713
							c-5.564,3.586-10.668,7.84-15.199,12.664l-4.16,4.428l178.704-2.84l-22.441-24.242c-5.456-5.893-9.362-13.051-11.366-20.83
							l-6.159-23.928L472.18,445.65z"/>
						<path opacity="0.5" fill="#442849" d="M526.005,482.992l32.002-7.986c8.317-2.078,15.594-6.986,20.641-13.805l-5.531-21.488
							L472.18,445.65l2.297,10.936l25.6,20.68C507.344,483.135,516.943,485.254,526.005,482.992z"/>
					</g>
					<path fill="#BD4E5A" d="M449.627,352.371c16.817-9.764,51.136-18.924,75.056-22.112c11.584-1.543,23.014,3.693,29.358,13.507
						l35.239,54.526c5.893,9.119,6.352,20.725,1.196,30.283l-4.53,8.395c-5.988,11.098-16.452,19.092-28.735,21.953l-29.041,6.76
						c-9.655,2.248-19.785,1.17-28.749-3.063l-42.844-20.227L449.627,352.371z"/>
					<path fill="#F5AF99" d="M589.28,398.291l-3.315-5.131c-10.366-0.637-22.223,0.15-34.322,2.119
						c-8.356,1.357-16.457-3.371-19.505-11.269c-7.078-18.347-18.516-38.185-26.801-50.348c-3.828,0.814-7.727,1.724-11.615,2.705
						c7.328,12.371,15.727,33.386,20.671,52.601c2.074,8.064-1.874,16.494-9.487,19.863c-11.265,4.986-20.909,10.945-27.403,17.572
						c-1.82,1.859-2.42,4.594-1.571,7.055l3.815,11.063c2.323,6.732,7.264,12.238,13.702,15.277l5.973,2.82
						c8.964,4.232,19.094,5.311,28.749,3.063l29.041-6.76c12.283-2.861,22.747-10.855,28.735-21.953l4.53-8.395
						C595.632,419.016,595.173,407.41,589.28,398.291z"/>
					<circle fill="#442849" cx="486.656" cy="386.84" r="6.308"/>
					<circle fill="#442849" cx="548.827" cy="372.485" r="6.308"/>
					<path fill="#F5AF99" d="M483.788,364.187c1.262-0.075,2.536-0.042,3.772-0.293c1.237-0.252,2.47-0.838,3.173-1.887
						c1.097-1.639,0.549-3.992-0.832-5.401c-1.38-1.408-3.385-2.026-5.339-2.281c-5.187-0.681-10.634,0.926-14.621,4.311
						c-1.215,1.03-2.317,2.243-2.947,3.705c-0.632,1.462-0.743,3.202-0.031,4.626c0.617,1.233,2.103,2.316,3.536,2.272
						c1.401-0.042,2.56-1.368,3.712-2.059C477.105,365.441,480.417,364.394,483.788,364.187z"/>
					<path fill="#F5AF99" d="M538.136,350.475c-0.961,0.404-1.884,0.911-2.907,1.149c-1.025,0.239-2.198,0.176-3.19-0.494
						c-1.55-1.049-2.215-3.354-1.834-5.127c0.376-1.771,1.569-3.069,2.894-4.029c3.508-2.549,8.246-3.153,12.715-1.629
						c1.358,0.463,2.72,1.133,3.847,2.198c1.128,1.068,1.998,2.576,2.12,4.112c0.104,1.332-0.498,2.853-1.573,3.351
						c-1.052,0.487-2.503-0.262-3.665-0.446C543.623,349.091,540.713,349.399,538.136,350.475z"/>
					<path fill="#442849" d="M489.491,430.449l17.779,5.41c7.84,2.385,16.36,0.414,22.359-5.174l4.22-3.928
						c2.582-2.41,3.435-6.15,2.148-9.436l-2.621-6.711l3.107-1.098l3.48,7.902c1.189,2.707,3.686,4.611,6.609,5.049l5.313,0.791
						c9.167,1.367,18.256-2.906,23.054-10.832l4.878-8.057l-7.057,22.566c-2.893,9.25-10.313,16.379-19.673,18.898l-12.199,3.287
						c-6.935,1.867-14.318,1.031-20.663-2.338L489.491,430.449z"/>
					<path fill="#F66A86" d="M571.75,457.445c-0.938-4.744-1.993-9.516-4.027-13.9c-0.718-1.553-1.579-3.057-2.569-4.459
						c-1.81-2.564-4.067-4.789-6.8-6.305c-6.426-3.557-14.549-2.717-21.235,0.324c-4.461,2.027-8.607,5.092-11.021,9.357
						c-1.04,1.836-1.678,3.916-1.895,6.023c4.001,1.395,8.263,1.889,12.473,1.426l0,0v0.002c1.475,5.904,1.927,12.635,2.542,18.688
						c0.618,6.057,2.327,12.383,6.805,16.504c3.067,2.824,7.293,4.352,11.459,4.143c4.163-0.209,8.213-2.152,10.984-5.27
						c3.07-3.459,4.483-8.148,4.739-12.766C573.459,466.592,572.648,461.984,571.75,457.445z"/>
					<path fill="#442849" d="M540.54,395.742c-8.732,1.057-17.279,3.629-25.147,7.561c-2.896,1.447-2.669,5.664,0.349,6.838
						c3.013,1.168,6.114,2.102,9.212,2.541c3.253,0.461,6.659,0.605,9.738-0.543c3.208-1.193,5.79-3.709,7.672-6.57
						c0.913-1.387,1.602-3.107,2.212-4.873C545.487,398.049,543.32,395.404,540.54,395.742z"/>
					<path fill="#442849" d="M426.797,362.573l16.514-15.404c3.393-3.165,8.947-1.149,9.52,3.457l8.083,65.113
						c1.917,15.438-1.937,31.037-10.82,43.807l-5.03,7.23c-2.623,3.768-8.428,2.898-9.829-1.473l-19.421-60.58
						C411.004,389.73,415.285,373.312,426.797,362.573z"/>
				</g>
				<path fill="#442849" d="M478.775,510.848L478.775,510.848c2.987-6.291,9.235-10.395,16.196-10.635l16.934-0.582
					c4.342-0.152,8.394,2.166,10.466,5.986l4.696,8.662c1.78,3.287,1.601,7.287-0.471,10.396l0,0
					c-1.528,2.301-3.934,3.871-6.651,4.348l-12.744,2.24c-7.818,1.373-15.72-1.941-20.219-8.482L478.775,510.848z"/>
				<path fill="#442849" d="M588.329,510.848L588.329,510.848c2.989-6.291,9.236-10.395,16.198-10.635l16.933-0.582
					c4.341-0.152,8.396,2.166,10.465,5.986l4.695,8.662c1.784,3.287,1.6,7.287-0.47,10.396l0,0
					c-1.528,2.301-3.934,3.871-6.651,4.348l-12.741,2.24c-7.821,1.373-15.723-1.941-20.221-8.482L588.329,510.848z"/>
			</g>
			<path fill="#3EA8BA" d="M681.489,820.465H48.892c-3.026,0-5.48-2.453-5.48-5.479l0,0c0-3.027,2.454-5.482,5.48-5.482h632.598
				c3.023,0,5.479,2.455,5.479,5.482l0,0C686.968,818.012,684.513,820.465,681.489,820.465z"/>
		</g>
	</g>
</g>
</svg>
